<svg width="378" height="378" viewBox="0 0 378 378" fill="none" xmlns="http://www.w3.org/2000/svg">
<path d="M49.0478 267C46.3382 267 43.9334 266.429 41.8334 265.287C39.8012 264.212 38.1754 262.666 36.956 260.651C35.7367 258.635 35.127 256.317 35.127 253.697C35.127 252.42 35.5673 251.446 36.448 250.774C37.3963 250.17 38.4802 249.834 39.6995 249.767C40.9866 249.699 42.0705 249.968 42.9511 250.573C43.8995 251.178 44.3737 252.118 44.3737 253.395C44.3737 255.142 44.8817 256.485 45.8979 257.426C46.914 258.366 48.1672 258.837 49.6575 258.837C53.18 258.837 56.4994 256.855 59.6154 252.891C62.7315 248.927 65.5428 243.182 68.0492 235.657L98.0247 144.35C99.9214 138.774 100.836 134.272 100.768 130.846C100.7 127.419 99.7182 124.9 97.8215 123.287C95.9925 121.675 93.2828 120.869 89.6925 120.869C86.4409 120.869 83.3587 121.541 80.4459 122.884C77.6007 124.161 74.9588 126.008 72.5201 128.427C70.1492 130.779 68.0831 133.634 66.3218 136.993C64.5606 140.286 63.2057 143.981 62.2574 148.079C61.309 152.178 60.8348 156.545 60.8348 161.181C60.8348 164.204 61.0041 167.261 61.3428 170.352C61.7493 173.375 62.3251 176.331 63.0702 179.22C63.8831 182.109 64.8315 184.831 65.9154 187.384C67.067 189.937 68.3879 192.255 69.8782 194.337C70.6234 195.412 70.7589 196.42 70.2847 197.361C69.8105 198.301 69.2008 199.041 68.4557 199.578C67.1008 200.519 66.017 200.955 65.2041 200.888C64.3912 200.821 63.6122 200.25 62.867 199.175C61.1058 196.487 59.5138 193.632 58.0913 190.609C56.6687 187.518 55.4494 184.327 54.4333 181.034C53.4171 177.742 52.672 174.45 52.1978 171.158C51.7236 167.866 51.4865 164.641 51.4865 161.483C51.4865 155.839 52.1301 150.565 53.4171 145.661C54.7042 140.689 56.4994 136.187 58.8026 132.156C61.1735 128.058 63.9848 124.564 67.2363 121.675C70.4879 118.719 74.0443 116.434 77.9056 114.822C81.7668 113.209 85.8651 112.403 90.2006 112.403C95.9586 112.403 100.463 113.713 103.715 116.334C106.967 118.887 108.829 122.683 109.304 127.722C109.846 132.694 108.897 138.942 106.458 146.467L76.3814 237.975C74.3492 244.291 71.9105 249.599 69.0653 253.899C66.2202 258.199 63.1041 261.457 59.7171 263.674C56.33 265.891 52.7736 267 49.0478 267Z" fill="black"/>
<path d="M35 253.697C35 251.144 35.5758 248.591 36.7274 246.038C37.8113 243.485 39.437 240.932 41.6048 238.378C43.7725 235.825 46.4483 233.272 49.6321 230.719C52.7482 228.233 56.3723 225.68 60.5045 223.06C64.6368 220.507 69.2093 217.92 74.2221 215.3C79.235 212.612 83.7736 209.992 87.8381 207.439C91.9026 204.819 95.5945 202.198 98.9138 199.578C102.233 196.958 105.18 194.337 107.754 191.717C110.396 189.03 112.767 186.376 114.867 183.756C117.035 181.135 118.999 178.515 120.76 175.895C122.589 173.207 124.283 170.553 125.841 167.933C126.518 166.724 127.331 166.186 128.28 166.321C129.296 166.388 130.041 166.858 130.515 167.731C131.057 168.538 130.989 169.546 130.312 170.755C128.28 174.383 126.112 177.977 123.809 181.538C121.505 185.032 118.897 188.492 115.985 191.919C113.072 195.278 109.752 198.637 106.027 201.997C102.301 205.289 98.0332 208.615 93.2235 211.974C88.3462 215.266 82.7914 218.592 76.5592 221.951C72.4947 224.168 68.769 226.352 65.3819 228.502C61.9271 230.652 58.9126 232.768 56.3385 234.851C53.7643 237.001 51.5966 239.084 49.8353 241.099C48.0063 243.182 46.6515 245.231 45.7708 247.247C44.8225 249.33 44.3483 251.413 44.3483 253.495C44.3483 254.772 43.8741 255.713 42.9257 256.317C41.9773 256.989 40.8935 257.325 39.6741 257.325C38.4548 257.392 37.3709 257.124 36.4226 256.519C35.4742 255.914 35 254.974 35 253.697Z" fill="black"/>
<path d="M119.234 216.207C116.118 216.207 113.679 215.468 111.918 213.99C110.224 212.444 109.31 210.194 109.174 207.237C109.039 204.214 109.682 200.552 111.105 196.252L121.266 166.018C121.74 164.674 122.282 163.801 122.892 163.398C123.569 162.995 124.551 162.793 125.839 162.793C127.938 162.793 129.259 163.129 129.801 163.801C130.411 164.406 130.479 165.38 130.005 166.724L119.234 198.57C118.624 200.25 118.218 201.829 118.014 203.307C117.879 204.785 118.116 205.961 118.726 206.834C119.403 207.708 120.656 208.144 122.485 208.144C124.856 208.144 127.43 207.137 130.208 205.121C132.985 203.105 135.83 200.283 138.743 196.655C141.724 193.027 144.637 188.761 147.482 183.856C150.327 178.884 152.969 173.442 155.408 167.53L155.916 166.018C156.39 164.674 156.932 163.801 157.541 163.398C158.219 162.995 159.201 162.793 160.488 162.793C162.588 162.793 163.909 163.129 164.451 163.801C165.061 164.406 165.128 165.38 164.654 166.724L153.68 199.679C152.529 203.173 151.987 205.591 152.054 206.935C152.122 208.212 152.935 208.85 154.493 208.85C155.441 208.85 156.153 209.253 156.627 210.059C157.101 210.798 157.27 211.672 157.135 212.679C157.067 213.62 156.661 214.46 155.916 215.199C155.17 216.005 154.087 216.408 152.664 216.408C149.683 216.408 147.448 215.837 145.958 214.695C144.535 213.62 143.654 212.243 143.316 210.563C142.977 208.816 142.977 207.002 143.316 205.121C143.654 203.173 144.095 201.392 144.637 199.78L145.754 196.555C143.722 199.712 141.622 202.501 139.454 204.919C137.287 207.338 135.051 209.387 132.748 211.067C130.513 212.747 128.243 214.023 125.94 214.897C123.705 215.77 121.469 216.207 119.234 216.207Z" fill="black"/>
<path d="M152.656 216.408C151.369 216.408 150.522 216.005 150.116 215.199C149.709 214.46 149.642 213.62 149.913 212.679C150.116 211.672 150.658 210.798 151.538 210.059C152.351 209.253 153.401 208.85 154.688 208.85C156.585 208.85 158.99 208.044 161.903 206.431C164.816 204.819 168.033 202.601 171.556 199.78C175.078 196.891 178.736 193.565 182.53 189.802C186.391 186.04 190.185 181.975 193.91 177.608C197.704 173.174 201.26 168.638 204.58 164.003C207.967 159.367 210.947 154.764 213.522 150.196C216.096 145.627 218.128 141.26 219.618 137.094C221.109 132.862 221.854 129.032 221.854 125.605C221.854 124.329 222.26 123.388 223.073 122.783C223.954 122.112 224.97 121.776 226.121 121.776C227.273 121.776 228.255 122.112 229.068 122.783C229.949 123.388 230.389 124.329 230.389 125.605C230.389 128.83 229.712 132.425 228.357 136.389C227.07 140.286 225.241 144.418 222.87 148.785C220.567 153.152 217.857 157.586 214.741 162.088C211.625 166.522 208.238 170.956 204.58 175.391C200.989 179.825 197.264 184.058 193.402 188.089C189.541 192.12 185.68 195.883 181.819 199.376C177.957 202.803 174.232 205.793 170.641 208.346C167.051 210.899 163.732 212.881 160.683 214.292C157.635 215.703 154.959 216.408 152.656 216.408Z" fill="black"/>
<path d="M191.876 216.61C188.421 216.61 185.711 215.938 183.747 214.594C181.782 213.251 180.428 211.504 179.682 209.354C179.005 207.137 178.768 204.751 178.971 202.198C179.174 199.578 179.682 196.991 180.495 194.438L200.208 134.474C202.714 126.613 205.492 120.902 208.54 117.341C211.656 113.78 215.382 112 219.717 112C221.885 112 223.748 112.571 225.306 113.713C226.932 114.855 228.185 116.434 229.066 118.45C230.014 120.466 230.488 122.851 230.488 125.605C230.488 126.882 230.048 127.822 229.167 128.427C228.354 129.032 227.372 129.334 226.221 129.334C225.069 129.334 224.053 129.032 223.172 128.427C222.359 127.822 221.953 126.882 221.953 125.605C221.953 124.463 221.851 123.489 221.648 122.683C221.445 121.876 221.106 121.238 220.632 120.768C220.158 120.298 219.446 120.062 218.498 120.062C217.414 120.062 216.364 120.533 215.348 121.473C214.4 122.347 213.35 123.993 212.198 126.412C211.114 128.763 209.827 132.122 208.337 136.49L189.437 194.438C188.895 196.118 188.421 197.798 188.015 199.477C187.676 201.09 187.574 202.601 187.71 204.012C187.845 205.356 188.387 206.465 189.336 207.338C190.284 208.144 191.808 208.547 193.908 208.547C195.669 208.547 197.464 208.077 199.293 207.137C201.19 206.196 203.019 204.919 204.781 203.307C206.61 201.694 208.303 199.847 209.861 197.764C211.419 195.614 212.808 193.33 214.027 190.911C215.314 188.492 216.33 186.04 217.076 183.554C217.414 182.546 217.719 181.538 217.99 180.531C218.261 179.523 218.464 178.515 218.6 177.507C218.803 176.499 218.905 175.525 218.905 174.585C217.821 173.442 217.042 172.435 216.567 171.561C216.161 170.621 215.958 169.512 215.958 168.235C215.958 166.757 216.432 165.581 217.38 164.708C218.329 163.767 219.548 163.297 221.038 163.297C222.055 163.297 222.935 163.532 223.68 164.003C224.425 164.406 225.035 165.044 225.509 165.917C226.051 166.724 226.424 167.731 226.627 168.941C226.898 170.083 227.033 171.393 227.033 172.871C227.033 176.567 226.424 180.43 225.204 184.461C224.053 188.425 222.393 192.322 220.226 196.151C218.058 199.981 215.517 203.441 212.605 206.532C209.692 209.622 206.474 212.075 202.951 213.889C199.429 215.703 195.737 216.61 191.876 216.61Z" fill="black"/>
<path d="M233.461 175.29C230.413 175.29 227.974 174.954 226.145 174.282C224.316 173.543 222.419 172.435 220.455 170.956C219.642 170.419 219.236 169.781 219.236 169.042C219.236 168.303 219.473 167.631 219.947 167.026C220.353 166.354 220.861 165.884 221.471 165.615C222.081 165.279 222.623 165.313 223.097 165.716C224.248 166.589 225.637 167.261 227.263 167.731C228.889 168.202 231.192 168.437 234.173 168.437C236.747 168.437 239.355 168.235 241.997 167.832C244.706 167.362 247.111 166.791 249.211 166.119C251.379 165.38 252.903 164.607 253.784 163.801C254.461 163.129 255.138 163.096 255.816 163.7C256.493 164.238 256.9 165.01 257.035 166.018C257.171 167.026 256.764 167.933 255.816 168.739C253.106 170.822 249.685 172.435 245.553 173.577C241.489 174.719 237.458 175.29 233.461 175.29Z" fill="black"/>
<path d="M248.703 216.408C245.722 216.408 243.487 215.871 241.997 214.796C240.574 213.721 239.693 212.344 239.355 210.664C239.016 208.917 239.016 207.103 239.355 205.222C239.693 203.273 240.134 201.459 240.676 199.78L251.853 166.018C252.327 164.674 252.869 163.801 253.479 163.398C254.156 162.995 255.138 162.793 256.425 162.793C258.525 162.793 259.846 163.129 260.388 163.801C260.998 164.406 261.066 165.38 260.592 166.724L249.719 199.679C248.5 203.24 247.924 205.658 247.992 206.935C248.127 208.212 248.974 208.85 250.532 208.85C251.48 208.85 252.192 209.253 252.666 210.059C253.14 210.798 253.309 211.672 253.174 212.679C253.106 213.62 252.7 214.46 251.955 215.199C251.209 216.005 250.126 216.408 248.703 216.408ZM262.725 147.273C261.371 147.273 260.219 146.836 259.271 145.963C258.322 145.09 257.848 143.813 257.848 142.133C257.848 140.319 258.424 138.606 259.575 136.993C260.795 135.381 262.658 134.575 265.164 134.575C266.587 134.575 267.772 135.011 268.72 135.885C269.669 136.691 270.143 137.968 270.143 139.715C270.143 141.529 269.533 143.242 268.314 144.854C267.162 146.467 265.3 147.273 262.725 147.273Z" fill="black"/>
<path d="M248.215 216.408C246.928 216.408 246.081 216.005 245.674 215.199C245.268 214.46 245.2 213.62 245.471 212.679C245.674 211.672 246.216 210.798 247.097 210.059C247.91 209.253 248.96 208.85 250.247 208.85C252.144 208.85 254.549 208.044 257.461 206.431C260.374 204.819 263.592 202.601 267.115 199.78C270.637 196.891 274.295 193.565 278.089 189.802C281.95 186.04 285.743 181.975 289.469 177.608C293.263 173.174 296.819 168.638 300.138 164.003C303.525 159.367 306.506 154.764 309.08 150.196C311.654 145.627 313.687 141.26 315.177 137.094C316.667 132.862 317.412 129.032 317.412 125.605C317.412 124.329 317.819 123.388 318.632 122.783C319.512 122.112 320.528 121.776 321.68 121.776C322.832 121.776 323.814 122.112 324.627 122.783C325.507 123.388 325.948 124.329 325.948 125.605C325.948 128.83 325.27 132.425 323.916 136.389C322.628 140.286 320.799 144.418 318.428 148.785C316.125 153.152 313.416 157.586 310.3 162.088C307.183 166.522 303.796 170.956 300.138 175.391C296.548 179.825 292.822 184.058 288.961 188.089C285.1 192.12 281.239 195.883 277.377 199.376C273.516 202.803 269.79 205.793 266.2 208.346C262.61 210.899 259.29 212.881 256.242 214.292C253.194 215.703 250.518 216.408 248.215 216.408Z" fill="black"/>
<path d="M288.148 216.408C284.355 216.408 281.34 215.266 279.105 212.982C276.937 210.63 275.718 207.372 275.447 203.206C275.176 198.973 275.955 194.035 277.784 188.391L295.667 134.474C298.174 126.613 300.951 120.902 304 117.341C307.116 113.78 310.841 112 315.177 112C317.345 112 319.208 112.571 320.766 113.713C322.391 114.855 323.645 116.434 324.525 118.45C325.474 120.466 325.948 122.851 325.948 125.605C325.948 126.882 325.507 127.822 324.627 128.427C323.814 129.032 322.832 129.334 321.68 129.334C320.528 129.334 319.512 129.032 318.632 128.427C317.819 127.822 317.412 126.882 317.412 125.605C317.412 124.463 317.311 123.489 317.108 122.683C316.904 121.876 316.566 121.238 316.091 120.768C315.617 120.298 314.906 120.062 313.958 120.062C312.874 120.062 311.824 120.533 310.808 121.473C309.859 122.347 308.843 123.993 307.759 126.412C306.675 128.763 305.354 132.122 303.796 136.49L286.116 190.105C284.761 194.203 284.016 197.663 283.88 200.485C283.813 203.307 284.321 205.423 285.405 206.834C286.489 208.178 288.047 208.85 290.079 208.85C291.027 208.85 291.738 209.253 292.213 210.059C292.687 210.798 292.856 211.672 292.721 212.679C292.585 213.62 292.145 214.46 291.4 215.199C290.655 216.005 289.571 216.408 288.148 216.408Z" fill="black"/>
<path d="M288.205 216.408C287.256 216.408 286.545 216.005 286.071 215.199C285.597 214.46 285.427 213.62 285.563 212.679C285.63 211.672 286.037 210.798 286.782 210.059C287.527 209.253 288.611 208.85 290.034 208.85C291.659 208.85 293.522 208.044 295.622 206.431C297.654 204.819 300.059 202.299 302.837 198.873C305.614 195.379 308.899 190.844 312.693 185.267C316.486 179.624 320.924 172.804 326.004 164.809C326.614 163.868 327.393 163.465 328.341 163.599C329.357 163.734 330.17 164.171 330.78 164.91C331.39 165.649 331.423 166.455 330.881 167.328C325.123 177.003 320.145 185.032 315.945 191.415C311.812 197.73 308.188 202.736 305.072 206.431C301.956 210.059 299.077 212.646 296.435 214.191C293.725 215.669 290.982 216.408 288.205 216.408Z" fill="black"/>
<path d="M319.806 216.207C316.012 216.207 313.641 214.729 312.693 211.772C311.745 208.749 312.219 204.382 314.116 198.671L324.886 166.018C325.361 164.674 325.902 163.801 326.512 163.398C327.19 162.995 328.172 162.793 329.459 162.793C331.559 162.793 332.88 163.129 333.422 163.801C334.031 164.406 334.099 165.38 333.625 166.724L321.228 204.315C320.754 205.726 320.585 206.801 320.72 207.54C320.856 208.212 321.364 208.547 322.244 208.547C322.854 208.547 323.464 208.346 324.073 207.943C324.683 207.54 325.361 206.935 326.106 206.129C326.919 205.322 327.867 204.281 328.951 203.005C329.493 202.333 330.035 201.963 330.577 201.896C331.119 201.762 331.762 201.963 332.507 202.501C333.591 203.173 334.235 203.844 334.438 204.516C334.709 205.188 334.641 205.86 334.235 206.532C332.812 208.749 331.322 210.597 329.764 212.075C328.273 213.486 326.682 214.527 324.988 215.199C323.362 215.871 321.635 216.207 319.806 216.207ZM335.759 147.273C334.404 147.273 333.252 146.836 332.304 145.963C331.356 145.09 330.881 143.813 330.881 142.133C330.881 140.319 331.457 138.606 332.609 136.993C333.828 135.381 335.691 134.575 338.198 134.575C339.62 134.575 340.806 135.011 341.754 135.885C342.702 136.691 343.176 137.968 343.176 139.715C343.176 141.529 342.567 143.242 341.347 144.854C340.196 146.467 338.333 147.273 335.759 147.273Z" fill="black"/>
</svg>
